# xmcd CD database file
#
# Track frame offsets:
#	150
#	15832
#	34047
#	49688
#	61709
#	76580
#	93585
#	111880
#	130935
#	145019
#	156603
#	179218
#	199900
#	214806
#	228194
#	248699
#	268396
#
# Disc length: 3981 seconds
#
# Revision: 0
# Processed by: cddbd v1.5.2PL0 Copyright (c) Steve Scherf et al.
# Submitted via: CDex 1.50beta10
#
DISCID=e90f8b11
DTITLE=Jonny Winter - The Collection
DYEAR=1987
DGENRE=Blues
TTITLE0=Rock And Roll Hoochie Koo
TTITLE1=Cheap Tequila
TTITLE2=On The Limb
TTITLE3=Slipping' And Sliding'
TTITLE4=Jonny B. Goode (Live)
TTITLE5=Rock Me Baby
TTITLE6=Let It Bleed
TTITLE7=Stray Cat Blues
TTITLE8=Riot in Cell Block 9
TTITLE9=Bony Moronie
TTITLE10=Highway 61 Revisited
TTITLE11=Raised On Rock
TTITLE12=Pick Up On My Mojo
TTITLE13=Thirty Days
TTITLE14=Good Morning Little Schoolgirl
TTITLE15=Jumpin' Jack Flash
TTITLE16=Medley (Live)
EXTD=YEAR: 1987
EXTT0=
EXTT1=
EXTT2=
EXTT3=
EXTT4=
EXTT5=
EXTT6=
EXTT7=
EXTT8=
EXTT9=
EXTT10=
EXTT11=
EXTT12=
EXTT13=
EXTT14=
EXTT15=
EXTT16=
PLAYORDER=
